<svg width="41" height="35" viewBox="0 0 41 35" fill="none" xmlns="http://www.w3.org/2000/svg">
<g filter="url(#filter0_d)">
<path d="M37.145 4.1787C35.9202 4.70704 34.5873 5.08729 33.2144 5.23539C34.6398 4.38858 35.7072 3.05077 36.2164 1.47295C34.8788 2.26862 33.4136 2.82656 31.8855 3.12202C31.2469 2.43928 30.4745 1.89538 29.6165 1.52421C28.7585 1.15304 27.8332 0.962551 26.8983 0.964616C23.1159 0.964616 20.0739 4.03061 20.0739 7.79305C20.0739 8.32139 20.1379 8.84973 20.242 9.35806C14.5783 9.06187 9.52705 6.35611 6.16887 2.21343C5.55697 3.25857 5.23632 4.44858 5.24026 5.65966C5.24026 8.0292 6.44505 10.1186 8.28224 11.3474C7.19955 11.3047 6.14222 11.0071 5.19624 10.4788V10.5628C5.19624 13.881 7.54176 16.6308 10.6678 17.2632C10.0808 17.4157 9.47704 17.4936 8.87062 17.4953C8.42633 17.4953 8.00606 17.4513 7.58178 17.3913C8.44634 20.097 10.964 22.0623 13.9619 22.1263C11.6164 23.9635 8.67849 25.0442 5.48843 25.0442C4.91605 25.0442 4.38771 25.0242 3.83936 24.9602C6.86532 26.9014 10.4556 28.0222 14.3222 28.0222C26.8743 28.0222 33.7428 17.6234 33.7428 8.59757C33.7428 8.30138 33.7428 8.00518 33.7227 7.70899C35.0516 6.73636 36.2164 5.53158 37.145 4.1787Z" fill="#FA4A0C"/>
</g>
<defs>
<filter id="filter0_d" x="-0.160645" y="0.9646" width="41.3056" height="35.0576" filterUnits="userSpaceOnUse" color-interpolation-filters="sRGB">
<feFlood flood-opacity="0" result="BackgroundImageFix"/>
<feColorMatrix in="SourceAlpha" type="matrix" values="0 0 0 0 0 0 0 0 0 0 0 0 0 0 0 0 0 0 127 0"/>
<feOffset dy="4"/>
<feGaussianBlur stdDeviation="2"/>
<feColorMatrix type="matrix" values="0 0 0 0 0 0 0 0 0 0 0 0 0 0 0 0 0 0 0.25 0"/>
<feBlend mode="normal" in2="BackgroundImageFix" result="effect1_dropShadow"/>
<feBlend mode="normal" in="SourceGraphic" in2="effect1_dropShadow" result="shape"/>
</filter>
</defs>
</svg>
